<svg width="1296" height="167" viewBox="0 0 1296 167" fill="none" xmlns="http://www.w3.org/2000/svg">
    <path d="M83.4 140.6C71.5333 140.6 61.3333 138.067 52.8 133C44.2667 127.8 37.7333 120.867 33.2 112.2C28.6667 103.533 26.4 94 26.4 83.6C26.4 73.0667 28.6667 63.5333 33.2 55C37.7333 46.3333 44.2667 39.4667 52.8 34.4C61.3333 29.2 71.5333 26.6 83.4 26.6C92.0667 26.6 99.8667 28.0667 106.8 31C113.733 33.8 119.6 37.7333 124.4 42.8L120.2 47C115.8 42.6 110.533 39.1333 104.4 36.6C98.2667 34.0667 91.2667 32.8 83.4 32.8C72.7333 32.8 63.5333 35.1333 55.8 39.8C48.2 44.3333 42.4 50.4667 38.4 58.2C34.4 65.8 32.4 74.2667 32.4 83.6C32.4 92.9333 34.4 101.467 38.4 109.2C42.4 116.8 48.2 122.933 55.8 127.6C63.5333 132.133 72.7333 134.4 83.4 134.4C91.2667 134.4 98.2667 133.133 104.4 130.6C110.533 128.067 115.8 124.6 120.2 120.2L124.4 124.4C119.6 129.333 113.733 133.267 106.8 136.2C99.8667 139.133 92.0667 140.6 83.4 140.6ZM83.4 153.8C72.7333 153.8 63.0667 152 54.4 148.4C45.8667 144.667 38.4667 139.6 32.2 133.2C26.0667 126.8 21.3333 119.4 18 111C14.8 102.467 13.2 93.3333 13.2 83.6C13.2 73.8667 14.8 64.8 18 56.4C21.3333 47.8667 26.0667 40.4 32.2 34C38.4667 27.4667 45.8667 22.4 54.4 18.8C63.0667 15.2 72.7333 13.4 83.4 13.4C93.9333 13.4 103.4 15.2 111.8 18.8C120.333 22.2667 127.667 27.1333 133.8 33.4L129.4 37.8C123.933 32.0667 117.267 27.6 109.4 24.4C101.667 21.2 93 19.6 83.4 19.6C70.3333 19.6 58.9333 22.4667 49.2 28.2C39.6 33.9333 32.2 41.6667 27 51.4C21.8 61 19.2 71.7333 19.2 83.6C19.2 95.3333 21.8 106.067 27 115.8C32.2 125.533 39.6 133.267 49.2 139C58.9333 144.733 70.3333 147.6 83.4 147.6C93 147.6 101.667 146 109.4 142.8C117.267 139.6 123.933 135.133 129.4 129.4L133.8 133.8C127.667 139.933 120.333 144.8 111.8 148.4C103.4 152 93.9333 153.8 83.4 153.8ZM83.4 167C70.8667 167 59.4667 164.867 49.2 160.6C39.0667 156.2 30.3333 150.2 23 142.6C15.6667 135 10 126.2 6 116.2C2 106.067 2.38419e-07 95.2 2.38419e-07 83.6C2.38419e-07 72 2 61.2 6 51.2C10 41.0667 15.6667 32.2 23 24.6C30.3333 17 39.0667 11.0667 49.2 6.8C59.4667 2.39999 70.8667 0.199987 83.4 0.199987C95.6667 0.199987 106.867 2.33332 117 6.59999C127.133 10.7333 135.867 16.5333 143.2 24L139 28.2C132.2 21.4 124.067 16.0667 114.6 12.2C105.267 8.19999 94.8667 6.19999 83.4 6.19999C71.6667 6.19999 61.0667 8.19999 51.6 12.2C42.1333 16.2 34 21.7333 27.2 28.8C20.4 35.8667 15.1333 44.1333 11.4 53.6C7.8 62.9333 6 72.9333 6 83.6C6 94.2667 7.8 104.333 11.4 113.8C15.1333 123.133 20.4 131.333 27.2 138.4C34 145.467 42.1333 151 51.6 155C61.0667 159 71.6667 161 83.4 161C94.8667 161 105.267 159.067 114.6 155.2C124.067 151.2 132.2 145.8 139 139L143.2 143.2C135.867 150.533 127.133 156.333 117 160.6C106.867 164.867 95.6667 167 83.4 167ZM170.473 164V83.6H201.873C208.407 83.7333 214.007 86 218.673 90.4C223.34 94.6667 225.673 100.6 225.673 108.2C225.673 114.067 224.207 119 221.273 123C218.473 127 214.807 129.8 210.273 131.4L224.273 164H217.673L204.473 132.6C203.407 132.733 202.54 132.8 201.873 132.8H196.673L209.873 164H203.273L190.073 132.8H176.473V164H170.473ZM157.273 164V83.6H163.273V164H157.273ZM201.473 89.6H176.473V96.8H201.873C205.073 96.9333 207.607 98.0667 209.473 100.2C211.473 102.2 212.473 104.867 212.473 108.2C212.473 111.533 211.473 114.267 209.473 116.4C207.473 118.533 204.94 119.6 201.873 119.6H176.473V126.8H201.473C206.54 126.8 210.807 125.267 214.273 122.2C217.873 119 219.673 114.333 219.673 108.2C219.673 102.067 217.873 97.4667 214.273 94.4C210.807 91.2 206.54 89.6 201.473 89.6ZM201.473 102.8H176.473V113.6H201.473C202.94 113.6 204.14 113.2 205.073 112.4C206.007 111.467 206.473 110.067 206.473 108.2C206.473 106.333 206.007 105 205.073 104.2C204.14 103.267 202.94 102.8 201.473 102.8ZM252.895 164V83.6H300.695V89.6H258.895V96.8H300.695V102.8H258.895V114.2H294.295V120.2H258.895V127.4H294.295V133.4H258.895V144.8H300.695V150.8H258.895V158H300.695V164H252.895ZM239.695 164V83.6H245.695V164H239.695ZM320.352 164L349.552 83.6H355.952L385.152 164H378.752L352.752 92.4L348.952 102.8L371.152 164H364.752L361.352 154.4H330.152L326.752 164H320.352ZM306.352 164L335.552 83.6H341.952L312.752 164H306.352ZM337.152 135.2H354.352L345.752 111.6L337.152 135.2ZM332.352 148.4H359.152L356.552 141.2H334.952L332.352 148.4ZM459.219 164L488.419 83.6H494.819L524.019 164H517.619L491.619 92.4L487.819 102.8L510.019 164H503.619L500.219 154.4H469.019L465.619 164H459.219ZM445.219 164L474.419 83.6H480.819L451.619 164H445.219ZM476.019 135.2H493.219L484.619 111.6L476.019 135.2ZM471.219 148.4H498.019L495.419 141.2H473.819L471.219 148.4ZM584.086 89.6V83.6H649.886V89.6H584.086ZM607.286 164V102.8H584.086V96.8H649.886V102.8H626.486V164H620.486V102.8H613.286V164H607.286ZM659.813 134V83.6H665.813V133.8C665.813 142.333 668.346 148.867 673.413 153.4C678.613 157.8 684.746 160 691.813 160C698.879 160 704.946 157.8 710.013 153.4C715.213 148.867 717.813 142.333 717.813 133.8V83.6H723.813V134C723.679 140.8 722.146 146.6 719.213 151.4C716.413 156.067 712.613 159.667 707.813 162.2C703.013 164.733 697.679 166 691.813 166C685.946 166 680.546 164.733 675.613 162.2C670.813 159.667 666.946 156 664.013 151.2C661.213 146.4 659.813 140.667 659.813 134ZM673.013 134V83.6H679.013V133.8C679.013 138.333 680.279 141.667 682.813 143.8C685.346 145.8 688.346 146.8 691.813 146.8C695.279 146.8 698.279 145.8 700.813 143.8C703.346 141.667 704.612 138.333 704.612 133.8V83.6H710.612V134C710.479 140.267 708.546 145 704.813 148.2C701.213 151.267 696.879 152.8 691.813 152.8C686.746 152.8 682.346 151.2 678.613 148C674.879 144.8 673.013 140.133 673.013 134ZM795.945 164V83.6H801.945V164H795.945ZM874.145 164V83.6H880.145V164H874.145ZM809.145 164V83.6H815.145L837.945 112.2L860.945 83.6H866.945V164H860.945V114.2L846.545 132.6L815.145 93.2V104.8L841.945 138.2L838.145 143L815.145 114.4V164H809.145ZM860.945 93L841.945 117L846.545 122.8L860.945 104.6V93ZM904.141 164L933.341 83.6H939.741L968.941 164H962.541L936.541 92.4L932.741 102.8L954.941 164H948.541L945.141 154.4H913.941L910.541 164H904.141ZM890.141 164L919.341 83.6H925.741L896.541 164H890.141ZM920.941 135.2H938.141L929.541 111.6L920.941 135.2ZM916.141 148.4H942.941L940.341 141.2H918.741L916.141 148.4ZM978.953 164V83.6H984.953V164H978.953ZM1045.75 164V83.6H1051.75V164H1045.75ZM1032.55 141.6L998.153 93.8V106L1032.55 153.8V141.6ZM992.153 164V83.6H998.153L1032.55 131.4V83.6H1038.55V164H1032.55L998.153 116.2V164H992.153ZM1081.02 164V83.6H1128.82V89.6H1087.02V96.8H1128.82V102.8H1087.02V114.2H1122.42V120.2H1087.02V127.4H1122.42V133.4H1087.02V144.8H1128.82V150.8H1087.02V158H1128.82V164H1081.02ZM1067.82 164V83.6H1073.82V164H1067.82ZM1153.68 164V83.6H1185.08C1191.61 83.7333 1197.21 86 1201.88 90.4C1206.54 94.6667 1208.88 100.6 1208.88 108.2C1208.88 114.067 1207.41 119 1204.48 123C1201.68 127 1198.01 129.8 1193.48 131.4L1207.48 164H1200.88L1187.68 132.6C1186.61 132.733 1185.74 132.8 1185.08 132.8H1179.88L1193.08 164H1186.48L1173.28 132.8H1159.68V164H1153.68ZM1140.48 164V83.6H1146.48V164H1140.48ZM1184.68 89.6H1159.68V96.8H1185.08C1188.28 96.9333 1190.81 98.0667 1192.68 100.2C1194.68 102.2 1195.68 104.867 1195.68 108.2C1195.68 111.533 1194.68 114.267 1192.68 116.4C1190.68 118.533 1188.14 119.6 1185.08 119.6H1159.68V126.8H1184.68C1189.74 126.8 1194.01 125.267 1197.48 122.2C1201.08 119 1202.88 114.333 1202.88 108.2C1202.88 102.067 1201.08 97.4667 1197.48 94.4C1194.01 91.2 1189.74 89.6 1184.68 89.6ZM1184.68 102.8H1159.68V113.6H1184.68C1186.14 113.6 1187.34 113.2 1188.28 112.4C1189.21 111.467 1189.68 110.067 1189.68 108.2C1189.68 106.333 1189.21 105 1188.28 104.2C1187.34 103.267 1186.14 102.8 1184.68 102.8ZM1230.9 164L1260.1 83.6H1266.5L1295.7 164H1289.3L1263.3 92.4L1259.5 102.8L1281.7 164H1275.3L1271.9 154.4H1240.7L1237.3 164H1230.9ZM1216.9 164L1246.1 83.6H1252.5L1223.3 164H1216.9ZM1247.7 135.2H1264.9L1256.3 111.6L1247.7 135.2ZM1242.9 148.4H1269.7L1267.1 141.2H1245.5L1242.9 148.4Z" fill="black"/>
    </svg>
    